<?xml version="1.0" standalone="no"?>
<!DOCTYPE svg PUBLIC "-//W3C//DTD SVG 20010904//EN"
 "http://www.w3.org/TR/2001/REC-SVG-20010904/DTD/svg10.dtd">
<svg version="1.0" xmlns="http://www.w3.org/2000/svg"
 width="582.000000pt" height="599.000000pt" viewBox="0 0 582.000000 599.000000"
 preserveAspectRatio="xMidYMid meet">

<g transform="translate(0.000000,599.000000) scale(0.100000,-0.100000)"
fill="#000000" stroke="none">
<path d="M2755 5979 c-154 -16 -298 -60 -448 -136 -421 -215 -677 -628 -677
-1092 0 -337 118 -609 386 -888 204 -214 316 -371 434 -608 69 -139 125 -275
113 -275 -28 0 -229 151 -353 265 -126 116 -217 183 -320 238 -226 119 -479
170 -731 147 -573 -53 -1028 -457 -1135 -1008 -21 -105 -23 -315 -5 -422 15
-88 72 -262 108 -335 114 -225 316 -429 541 -548 298 -157 675 -192 994 -91
212 67 363 161 557 348 75 72 178 160 228 196 94 65 270 170 287 170 20 0 -25
-338 -75 -559 -79 -358 -192 -644 -338 -864 -185 -275 -409 -438 -682 -496
l-94 -20 1370 1 c1210 0 1361 1 1292 14 -487 88 -840 533 -1027 1293 -46 189
-111 594 -96 608 18 19 326 -191 454 -309 35 -32 67 -56 72 -53 5 3 26 -11 47
-31 158 -149 362 -258 593 -315 83 -20 120 -23 285 -24 208 0 288 12 440 64
297 103 554 322 704 601 47 89 103 253 122 360 18 107 16 316 -5 423 -98 507
-502 899 -1024 993 -114 20 -340 20 -454 0 -263 -48 -438 -138 -708 -366 -56
-47 -124 -104 -153 -128 -71 -58 -197 -145 -203 -140 -7 8 43 134 105 263 110
229 224 393 411 590 65 68 140 154 168 191 226 302 295 731 176 1089 -156 470
-579 803 -1083 854 -115 12 -160 12 -276 0z"/>
</g>
</svg>
