<svg xmlns="http://www.w3.org/2000/svg" xmlns:xlink="http://www.w3.org/1999/xlink" viewBox="0 0 1753.66 827.29"><defs><style>.cls-1{fill:url(#linear-gradient);}.cls-2{fill:url(#linear-gradient-2);}</style><linearGradient id="linear-gradient" x1="375.11" y1="251.8" x2="394.54" y2="-88.71" gradientUnits="userSpaceOnUse"><stop offset="0.35" stop-color="#21186b"/><stop offset="1" stop-color="#6144d0"/></linearGradient><linearGradient id="linear-gradient-2" x1="744.31" y1="902.38" x2="1572.28" y2="-643.51" gradientUnits="userSpaceOnUse"><stop offset="0.39" stop-color="#21186b"/><stop offset="1" stop-color="#6144d0"/></linearGradient></defs><g id="OBJECTS"><path class="cls-1" d="M555.33,366.19a13.54,13.54,0,0,0-5.26-8.78C514.68,330,413.79,266,372.55,242.82c.41-.61.77-1.15,1.06-1.56,1.15-1.63-.94-3.63-2.69-3.39a147,147,0,0,0-12.53-18.43c5.24.91,10.52,1.55,15.85,2.2,1.21-3.08,2.41-6.17,3.81-9.26a146.09,146.09,0,0,0-34.67-12.33,185.26,185.26,0,0,0,23.2-7.66A6.92,6.92,0,0,0,370,190.1c1.18-1.8.49-4.18-.26-6.2-1.43-3.8-3-7.5-4.85-11.21l1.46-.83a1,1,0,0,0,.49-.45,1,1,0,0,0-.17-.84l-1.26-2.36a2.05,2.05,0,0,0-.76-.93,1.75,1.75,0,0,0-1.65.15c-.21.11-.41.24-.62.36-1-1.89-2.07-3.79-3.2-5.73a78.69,78.69,0,0,1-7-16.67l1.69-.48a1.2,1.2,0,0,0,.63-.33,1.22,1.22,0,0,0,.1-1c-.2-1-.41-2-.61-3a1.24,1.24,0,0,0-.46-.91,1.2,1.2,0,0,0-.75-.11,12.87,12.87,0,0,0-2.13.39c-.45-1.7-.88-3.41-1.28-5.11-1.13-4.76-2.14-9.58-3.39-14.32.34-.12.7-.21,1-.33a1.88,1.88,0,0,0,1.41-1.27,2.28,2.28,0,0,0-.23-1.22l-1.59-4a1.05,1.05,0,0,0-.39-.55,1,1,0,0,0-.84.11l-1.37.62a67,67,0,0,0-2.67-6.8c-4-8.76-10.75-16.78-19.58-20.19-1,.16-2,.32-3,.46a76.35,76.35,0,0,0-7.88-44.37,34.79,34.79,0,0,0-.25-4,9.06,9.06,0,0,1,2.24-.38,34.54,34.54,0,0,0,0-3.52c23.75-2.27,40.49-5.77,40.33-8.86s-17.32-4.88-41.37-4.71a26.94,26.94,0,0,0-6.25-12.32,24,24,0,0,0-13.32-7.12,2.34,2.34,0,0,0-.95-1.71,3.32,3.32,0,0,0-2-.35,56.6,56.6,0,0,0-6.1.52,6.59,6.59,0,0,0-3.19,1.07A2.84,2.84,0,0,0,279,3.33,27.77,27.77,0,0,0,267.9,11a30,30,0,0,0-6.6,13.28c-21.47,2.27-36.23,5.53-36.08,8.43s14.56,4.57,35.46,4.71c-.05.62-.12,1.22-.22,1.83a40.52,40.52,0,0,0-12.92,9.09s0,.29,0,.26a17.94,17.94,0,0,0,4.59,7.58c1.71-4.39,4.33-8.45,7.47-13.65a21.74,21.74,0,0,0-.82,2.75,5.38,5.38,0,0,0,.64,4.13l.07.08A42,42,0,0,0,255,63.65a22.84,22.84,0,0,0,3.37.41,44.78,44.78,0,0,1,3.32-12.64l0,0A10.16,10.16,0,0,1,265.27,60a10.39,10.39,0,0,1-5,7.85c-.15-.54-.31-1.08-1.12-1a19,19,0,0,0-18.9,8.08c-1.88,2.89-3,6.29-5.23,8.88a19.29,19.29,0,0,0-2.32,2.72,10.41,10.41,0,0,0-1,3.78c-2.59-.39-5.35.84-7.71,3.18l-.25.36Q222.51,66.93,221.3,40c-4.37.56-6.65.88-9.64,1.3.76,22,2,43.31,3.35,65.9l-1,1.7a4.09,4.09,0,0,0-.59-.3,2.49,2.49,0,0,0-2.27.13,3.84,3.84,0,0,0-1,1.37l-1.21,2.26a2.37,2.37,0,0,0-.39,1.27c.07.75.83,1.23,1.52,1.52l.6.25a143,143,0,0,0-9.73,26,19.28,19.28,0,0,0-2.46-.73,1.53,1.53,0,0,0-.9,0c-.44.18-.62.7-.75,1.16q-.67,2.37-1.34,4.74a1.52,1.52,0,0,0,0,1.22,1.46,1.46,0,0,0,.89.53c.9.27,1.81.51,2.72.72a138.86,138.86,0,0,0-2.19,13.87c-.22,2-.37,4-.5,6.06a23.28,23.28,0,0,0-2.36-.1,1.36,1.36,0,0,0-.8.19,1.38,1.38,0,0,0-.36,1.11c0,1.48-.06,3-.08,4.46a2.62,2.62,0,0,0,.49,2c.7.7,1.8.4,2.82.41a143.65,143.65,0,0,0,3,29.73l-1.83.51a1.5,1.5,0,0,0-1,.57,1.44,1.44,0,0,0,0,1c.39,1.57.77,3.14,1.16,4.71.09.37.24.8.61.9a1.2,1.2,0,0,0,.59-.06l2-.63A151.39,151.39,0,0,0,209,237.5a106.36,106.36,0,0,0,10.68.7q.38,8.91.82,17.79a326.75,326.75,0,0,0-20.85,38s6.23,5.38,6.79,5.89a344.34,344.34,0,0,0-14,34.86A179.36,179.36,0,0,0,206.86,350c-3.17,8.16-6.33,16.33-9.53,24.62a109.44,109.44,0,0,0,38.81,23.64,10.55,10.55,0,0,1,2-2.47,62.76,62.76,0,0,0,9.38,5.38c-.53,16.65.67,24.76,1.08,41.41,0,0,4.19.87,4.93,1A93.82,93.82,0,0,0,248.93,474c0,2.13.22,4.45,1.67,6,1.28,1.37,3.26,1.81,5.11,2.09a57.37,57.37,0,0,0,14.46.33c2.83-.3,6.18-1.26,6.94-4,.72-2.59-1.32-5-2.63-7.35-5.43-9.67,1.07-23-4.43-31.77a52.86,52.86,0,0,0,5.05-2.13c1.77-12.8,1.8-17.11,3.07-29.45,4.68.34,9.38.44,13.9.48,2.05,10.24,4.79,25.7,6.84,35.94a.72.72,0,0,0,.55.52q1.85,0,3.69,0c.54,3.75.66,4.69,1.07,8.54-1.73,2.11-3.56,4.49-3.43,7.21.08,1.6.85,3.12.88,4.72,0,1.78-.65,3-1.31,4.62s-1.21,7.26-.38,8.83c1.22,2.32,4.38,2.52,7,2.58,14.15.33,26.23.33,38.14,1.49a60.71,60.71,0,0,0,9.14-.28c1.26-.09,2.67-.49,3.25-1.61a3.08,3.08,0,0,0-.79-3.41,10.44,10.44,0,0,0-3.2-1.9c-12.77-5.94-21.25-15.5-31.93-25.31.18-3.26.72-3.66.91-6.91l3.35-.42c.73-12.63.78-30.47,1.52-43.1a50.09,50.09,0,0,1,2.9-7.36c3.44-1.87,6.72-4,10.38-6.25a25.52,25.52,0,0,0,9.05,1.52c.24-4.16.47-8.32,1.08-13.21,11.46-10.86,22.93-21.72,33.46-33.59a373.31,373.31,0,0,1-30.95-87.16c.76,1.41,2.75,1.73,4.23,1.12a9,9,0,0,0,3.27-2.76c.29,1.82,3.08,3.14,4.53,1.51a26.53,26.53,0,0,0,1.86-2.49c47.09,25.76,148.73,92,186.87,118.77a.48.48,0,0,0,.66-.08A4.69,4.69,0,0,0,555.33,366.19Zm-326-123.84c-.06-1.43-.12-2.86-.19-4.28l3.33-.09C231.38,239.42,230.35,240.89,229.31,242.35ZM315.37,87.62a33.54,33.54,0,0,1-3.13-6.29,19.29,19.29,0,0,0-3.58-6,10.35,10.35,0,0,0-6.7-3,121.31,121.31,0,0,0,6.29-15.11,72.51,72.51,0,0,1,8.08,30.3Zm-6.13-33.94a48.14,48.14,0,0,0,1.06-6,78,78,0,0,1,4.76,21.75A82.27,82.27,0,0,0,309.24,53.68Z"/><path class="cls-2" d="M33.34,627.22c-.09,0,4.61-2.81,4.52-2.82s-.84,9.24-.93,9.23.47-9.26.38-9.26-.84,9.23-.93,9.23.47-9.27.38-9.27-.84,9.23-.93,9.23.47-9.26.38-9.27-.84,9.24-.93,9.23,4.59-6.47,4.5-6.47c-.6-1.53-10.25-.87-10.45-2.6s9.46-3.48,9.57-5.22-9.29-4.43-9-6.13,10.15-1.25,10.6-2.9-8.34-5.89-7.79-7.49,10.29-.09,10.9-1.64-7.7-6.65-7-8.16,10.31.56,11-.9c.77-1.65-7.3-7.06-6.63-8.44.52-1.07,9.64,2.27,10.19,1.37S44.36,577.86,45,577s8.77,4.37,9.55,3.63-4.63-8.51-3.72-9.16,7.31,6.42,8.3,5.85-2.86-9.14-1.82-9.67,6.55,7.19,7.6,6.66-2.64-9.16-1.59-9.72,6.86,7,7.88,6.36-3-9.13-1.9-9.77,7.3,6.59,8.36,5.94-3.29-9-2.25-9.71,7.67,6.22,8.68,5.51-3.94-8.79-3-9.54,8.26,5.51,9.18,4.71-5-8.27-4.12-9.13,9,4.29,9.79,3.36-6.46-7.23-5.81-8.23c.86-1.34,10.09,1.91,10.86.52s-7.17-7-6.46-8.4,10.21,1,10.86-.47-7.66-6.52-7-8,10.22.61,10.84-.85-7.73-6.46-7.1-7.91,10.19.77,10.85-.66-7.44-6.8-6.72-8.21,10.08,1.48,10.88.11c.69-1.2-6.93-7.08-6.28-8,.81-1.17,9.29,3.47,10.06,2.63,1-1.07-4.3-8.87-3.33-9.46,1.21-.74,5.54,7.39,6.78,7.27s3.22-9.07,4.57-8.73c1.17.29-.67,9.48.63,10,1.12.45,6.16-7.53,7.42-7s-1.59,9.48-.32,10,6-7.64,7.27-7.17-.9,9.59.34,10.05,5.9-7.76,7.13-7.33-.4,9.66.84,10,4.79-8.34,6.07-8.13,2,9.55,3.27,9.53,1.33-9.29,2.64-9.62,6.08,7.76,7.31,7.11-3.32-8.89-2.23-9.78c.94-.77,8.69,4.94,9.64,3.91s-5.71-7.87-4.95-8.71,8.91,4.35,9.68,3.51-5.66-7.91-4.87-8.74,8.68,4.7,9.5,3.9-5-8.32-4.12-9.08,8,5.65,8.95,4.94-3.71-8.9-2.69-9.53,6.93,6.8,8,6.25-2.19-9.35-1.06-9.83,6.07,7.62,7.25,7.19-.88-9.58.33-10,5.38,8.09,6.6,7.74-.31-9.58.91-9.92,5.13,8.26,6.35,7.93-.29-9.57.93-9.92,5.36,8.15,6.57,7.77-.84-9.53.36-10,6,7.72,7.2,7.23c1.75-.73-1.51-9.61,0-10.68s9.34,4.6,10.63,3.27-5-8.63-3.85-10.09,10.11,2.45,11.15.94-6.06-8.11-5-9.62,10.1,2.19,11.18.74-5.47-8.59-4.28-9.95,9.46,3.76,10.84,2.59-2.73-9.76-1.09-10.65c1.45-.79,6.62,7.13,8,6.75,1.55-.43,1.76-9.7,3.23-9.68s1.65,9.35,3.12,9.76,6.41-7.6,7.8-6.92-2.19,9.41-.88,10.23,8-6,9.26-5.12-3.15,9.25-1.91,10.1,7.91-6,9.18-5.22-2,9.63-.61,10.24c.6.27,5.1-7.95,5.79-7.69s-2,9.17-1.36,9.4,4.13-8.46,4.82-8.28-.78,9.36-.09,9.49,2.76-8.94,3.46-8.87,1.05,9.34,1.75,9.33.49-9.27,1.17-9.38,4,8.61,4.62,8.37-3.25-8.69-2.67-9.07,7.52,6.12,8.15,5.53-6-7.38-5.5-8,8.77,4.34,9.28,3.66-7.07-6.56-6.6-7.25,9.07,3.7,9.53,3-7.23-6.43-6.77-7.1,9,3.86,9.45,3.21-6.72-6.95-6.2-7.56,8.29,5,8.87,4.45c1.22-1.14-4.16-9-3-10s8.47,5.35,9.71,4.54c1.41-.93-2.05-9.71-.69-10.33,1.52-.68,6.12,7.56,7.62,7.25s2.45-9.58,4.06-9.48,1.36,9.43,3,9.91c1.44.43,6.52-7.55,8-6.81,1.34.65-2.08,9.44-.65,10.32s8.12-5.91,9.48-4.94-3,9.35-1.7,10.13,7.48-6.47,8.83-5.79-1.34,9.7.07,10.26,6.19-7.61,7.65-7.17.52,9.77,2,10.08,4.56-8.59,6.09-8.42,2.45,9.5,4,9.53,2.74-9.28,4.29-9.39,4.28,8.89,5.82,8.64c.86-.15-.15-9.41.69-9.58s3.86,8.68,4.71,8.5-.54-9.42.3-9.61,3.83,8.68,4.67,8.51-.11-9.44.75-9.57,3,9,3.82,8.88,1.22-9.37,2.09-9.38,1.3,9.28,2.18,9.36,3.09-8.95,4-8.79c1.38.27.36,9.58,1.75,10s6-7.8,7.34-7.27-1.39,9.52-.09,10.14,7.07-6.92,8.32-6.24-2.45,9.34-1.24,10.07,7.67-6.31,8.86-5.55-3.06,9.2-1.89,10,8-6,9.1-5.17-3.33,9.13-2.2,9.91c.85.59,7.51-6.19,8.32-5.58s-4.5,8.41-3.72,9.05,8-5.65,8.73-5-5.08,8.11-4.33,8.8,8.26-5.22,9-4.52-5.47,7.88-4.75,8.59,8.43-5,9.14-4.24-5.64,7.77-4.93,8.49,8.49-4.87,9.21-4.13c.38.38-6.31,7.1-6,7.46s7.71-5.68,8.08-5.32-6,7.36-5.6,7.71,7.14-6.3,7.55-6-4.85,8.1-4.41,8.38,5.69-7.49,6.17-7.27-2.67,9-2.16,9.14,3.35-8.69,3.89-8.6,0,9.34.52,9.37c1.05.05.67-9.1,1.59-9.41s6.39,7.26,7.2,6.66-5.24-7.89-4.57-8.66,9,4,9.58,3.16-7.35-6.31-6.88-7.17,9.59,2.45,10,1.58-8-5.63-7.58-6.5,9.69,2,10.08,1.14-8-5.73-7.55-6.53c.7-1.37,10.18,1.18,10.9-.31s-7.46-6.75-6.75-8.23,10.18,1,10.89-.43-7.34-6.9-6.6-8.33,10.12,1.39,10.91,0-6.84-7.39-6-8.74,9.92,2.3,10.86,1-5.74-8.24-4.69-9.43,9.23,4,10.42,3-2.93-9.5-1.69-10.09c1.47-.7,5.4,7.73,6.85,7.65s4.23-8.89,5.71-8.43-1.33,9.41,0,10.23,8.25-5.73,9.43-4.73-4.49,8.62-3.43,9.71,9.32-3.94,10.3-2.81-5.63,8.07-4.72,9.2,9.62-3.19,10.48-2.1c1.17,1.49-5.24,8.73-3.89,10.37s10.06-2.78,11.44-1.24-4.37,9.25-2.91,10.67,9.55-4,11.13-2.75-2.14,10.05-.4,11,7.42-6.65,9.36-6.16,3.61,9.73,5.69,9.45c1.93-.27.65-9.49,2.59-10.6,1.61-.93,9.24,5,10.84,3.41,1.22-1.24-5.19-8.39-4.21-9.74s10.18,2,11,.52-7.24-7-6.57-8.5,10.33.29,10.92-1.29-8-6.3-7.38-7.87,10.27.11,10.9-1.44-7.57-6.81-6.82-8.31,10,1.53,11,.12-1.57-9.83-.4-11.1c.54,1.47-3.79,9.43-3.26,10.37.93,1.67,7.47-4.08,8.34-3.83,1.14.32,4.79,6.77,5.84,5.38.68-.89-7-6.75-6.33-8.07.53-1.09,10,1.4,10.48.14s-8.1-5.74-7.62-6.95,10,.84,10.49-.33-7.94-6.07-7.44-7.15c.65-1.39,9.58,2.15,10.21,1.36.38-.48-6.84-6.71-6.48-7.12s8,5.31,8.4,4.93-5.62-7.7-5.19-8,6,7.21,6.49,7-1.18-9.24-.59-9.27.2,9.13.81,9.28,4.46-8.28,5-8-3.83,8.53-3.29,8.87,6.56-6.91,7.06-6.54-5.61,7.54-5.13,8.06,8.34-4.89,8.75-4.35-7.12,6.38-6.73,6.91,8.77-4.12,9.14-3.59-7.29,6.24-6.91,6.76,8.65-4.31,9-3.81-6.67,6.87-6.25,7.32,7.53-5.78,8-5.42,1.44,7.83,2,8c.12-.74-7.88-5.39-7.81-6.26s9.79-.9,9.85-1.75-9.55-2.38-9.47-3.21,9.8-.49,9.92-1.3-9.2-3.51-9-4.29,9.61,1.52,10,.81-7.24-6.48-6.7-7.07,7,6.12,7.8,5.75-1.14-9.33-.21-9.43,1.24,9.07,2.24,9.35,5.79-7.69,6.7-7.15-4,8.53-3.23,9.21,8.19-5.36,8.92-4.63-5.81,7.63-5.14,8.39,8.82-4.32,9.46-3.55-6.31,7.31-5.68,8.06,8.85-4.21,9.47-3.49-5.66,7.86-5,8.47,7.85-5.65,8.52-5.1-4.59,8.37-3.88,8.87,6.87-6.68,7.63-6.24-3,9-2.18,9.38,5.29-7.87,6.14-7.59-.87,9.42,0,9.61,3.33-8.81,4.24-8.71,1.13,9.4,2.06,9.42,1.64-9.25,2.57-9.3c1.6-.07,3.15,9.18,4.53,9.23,1.6.06,4.07-9,5.42-8.76,1.55.27.35,9.52,1.65,10s7.21-6.92,8.41-6.13-3.91,8.75-2.84,9.79,9.19-4.09,10.15-2.92-6,7.68-5.16,8.89,9.62-3,10.49-1.73-6.45,7.45-5.58,8.68,9.82-2.61,10.82-1.19c.88,1.26-6.15,7.83-5.15,9.18s9.73-2.9,10.75-1.62S767.9,455,769,456.22s9.38-3.77,10.53-2.64-4.22,9-3,10,8.33-5.46,9.69-4.65-1.1,9.91.42,10.39,4.64-8.25,6.29-8.28c.9,0,2.81,9.08,3.72,8.92s-.54-9.36.35-9.62,4.93,8.21,5.79,7.89-2.08-9.21-1.24-9.57,5.74,7.7,6.57,7.32-2.54-9.13-1.72-9.5,5.74,7.67,6.57,7.32-2.06-9.26-1.23-9.57,4.84,8.18,5.69,7.95c.51-.14-2-9.1-1.58-9.27s4.72,8.19,5.18,8-3.42-8.73-3-9,5.77,7.55,6.21,7.29-4.34-8.35-3.92-8.62,6.25,7.18,6.68,6.9-4.6-8.24-4.16-8.52,6.19,7.22,6.62,6.95-4.25-8.41-3.79-8.68,5.67,7.59,6.2,7.35-2.6-9-2-9.23,4,8.5,4.6,8.36-.89-9.32-.29-9.42,2.74,9,3.34,8.89-.16-9.34.44-9.42,2.65,9,3.25,8.92-.68-9.3-.07-9.43,3.64,8.7,4.25,8.52c.77-.22-2.08-9.09-1.35-9.44s6.4,7.19,7.08,6.73-4.77-8.17-4.15-8.69,8,5.51,8.56,4.93-6.38-7.12-5.89-7.74,8.88,4.13,9.32,3.48-7.42-6.16-7-6.83,9.38,2.94,9.73,2.25-3.44-8.08-3.13-8.79c1.86.82,1.91,10.54,3.68,11.1,1.95.62,6.22-7.86,8.06-7.54,2,.35,3.08,9.72,5,9.73s3-9.35,4.89-9.71,6.52,8,8.36,7.27-.8-9.79.93-10.77,8.69,5.67,10.29,4.49-3.31-9.38-1.82-10.7,9.6,4.05,11,2.65c1-1-5.39-8.16-4.45-9.3s9.57,3.29,10.43,2.11-6.35-7.57-5.52-8.76,9.72,2.78,10.54,1.59-6.35-7.62-5.5-8.78,9.53,3.25,10.43,2.15-5.44-8.29-4.43-9.31,8.71,4.77,9.84,3.89-3.06-9.36-1.77-10,6.46,7.24,7.76,6.81,0-9.69,1.4-10,4.2,8.71,5.59,8.58,2-9.46,3.43-9.51,3,9.19,4.4,9.18,2.68-9.28,4.06-9.28,3,9.24,4.36,9.2,2.14-9.36,3.49-9.48,4.18,8.86,5.51,8.61c1.52-.28.57-9.62,2-10.05s6.28,7.73,7.67,7.16-1.34-9.59,0-10.25,7.32,6.79,8.65,6.07-2.26-9.48-.95-10.22,7.57,6.49,8.89,5.75-2.18-9.53-.84-10.23,7.13,6.88,8.51,6.25-1.11-9.72.32-10.24,5.71,7.88,6.94,7.53.26-9.67,1.52-9.91,4,8.75,5.27,8.66,2.49-9.37,3.8-9.31,1.62,9.4,2.94,9.61,4.69-8.53,6-8.18-.53,9.53.75,10,6.13-7.62,7.38-7.07-1.84,9.41-.62,10c.5.24,5.52-7.69,6-7.42s-3.59,8.67-3.08,8.93,5.51-7.68,6-7.42-3.11,8.85-2.58,9.08,4.68-8.15,5.22-8-1.66,9.22-1.1,9.35,2.75-8.88,3.33-8.83,1,9.31,1.58,9.27-.37-9.24.2-9.37,4.42,8.36,5,8.13-3.81-8.53-3.33-8.86,7.14,6.42,7.57,6-6.25-7.15-5.86-7.59,8.37,4.87,8.73,4.4-7.17-6.36-6.83-6.83,8.6,4.44,9,4-7-6.51-6.68-7,8.15,5.12,8.55,4.7c.63-.66-5.42-7.95-4.75-8.48s7.12,6.43,7.86,6-3-9-2.14-9.38,5,8.08,5.82,7.84-.45-9.44.44-9.59,3,8.95,3.93,8.87,1.18-9.37,2.08-9.39,1.93,9.24,2.83,9.24,1.88-9.25,2.79-9.23c.64,0,.56,9.3,1.21,9.38s2.94-8.92,3.58-8.79-.93,9.3-.3,9.45,3.7-8.64,4.33-8.48-1.12,9.3-.49,9.45,3.35-8.76,4-8.64-.12,9.38.52,9.45,1.67-9.15,2.31-9.16,2.44,9.09,3.07,9c1-.19-1.39-9.15-.46-9.64s7.24,6.53,8.06,5.86-5.24-8-4.52-8.73,8.74,4.54,9.4,3.75-6.46-7.21-5.84-8,9.07,3.86,9.68,3.06-6.59-7.14-6-7.92,8.87,4.2,9.52,3.47-5.59-7.94-4.87-8.57c.9-.79,7.89,5.73,8.8,5.12s-3-9.15-2-9.64,6,7.57,7,7.21-.57-9.55.56-9.81,4.26,8.6,5.41,8.41.63-9.51,1.78-9.69,3.93,8.8,5.08,8.6.22-9.49,1.37-9.75,4.86,8.38,6,8-.78-9.53.42-9.95,5.93,7.78,7.11,7.31-1.52-9.45-.36-10,6.47,7.37,7.61,6.83-2.15-9.35-1-9.92,6.91,7,8,6.39-2.69-9.23-1.59-9.85,7.28,6.63,8.35,6-3.15-9.1-2.1-9.77,7.75,6.19,8.85,5.44-3.49-9-2.4-9.8,7.9,6,9,5.23-3.37-9.1-2.27-9.82,7.53,6.36,8.68,5.69-2.49-9.38-1.29-10,6.53,7.25,7.77,6.76-.73-9.66.57-10,4.78,8.37,6.14,8.15c1-.16,1-9.45,2-9.48s1.83,9.26,2.83,9.33,3.08-9,4.08-8.87.4,9.45,1.39,9.64,3.81-8.73,4.81-8.54.27,9.49,1.26,9.65,3.29-8.88,4.29-8.78,1.53,9.41,2.54,9.41,1.32-9.28,2.33-9.41c1.31-.18,5.06,8.38,6.21,7.93s-2.37-9.13-1.33-9.84,8.27,5.54,9.18,4.65-5.65-7.84-4.86-8.82,9.43,3.35,10.13,2.31-7-6.88-6.34-7.94,9.73,2.38,10.33,1.32-7.29-6.63-6.69-7.68,9.65,2.52,10.29,1.52-7-6.87-6.34-7.86,9.47,3.06,10.14,2.09-6.67-7.18-6-8.13,9.24,3.63,10,2.71-6-7.7-5.22-8.58,8.76,4.53,9.61,3.71-4.92-8.39-4-9.15,7.91,5.77,8.9,5.09-3.28-9.1-2.22-9.68,6.7,7.08,7.9,6.58-1-9.59.21-10,5.27,8.15,6.55,7.84.3-9.62,1.59-9.89,4.54,8.58,5.83,8.35.7-9.58,2-9.82,4.59,8.59,5.87,8.32.23-9.56,1.49-9.88,5.41,8.16,6.64,7.75c1.43-.47-.75-9.62.56-10.16s6.93,7.17,8.19,6.53-2.31-9.39-1.09-10.13,8,6.1,9.12,5.27-3.67-9-2.54-9.9,8.57,5.22,9.67,4.28-4.44-8.7-3.36-9.68,8.8,4.82,9.88,3.83-4.62-8.63-3.53-9.62c.92-.84,8,5.55,9,4.92s-3-9.18-2-9.66,5.78,7.64,6.88,7.33.21-9.58,1.38-9.74,3.27,9,4.47,8.92,2-9.34,3.18-9.36,2.65,9.23,3.86,9.18,1.61-9.36,2.83-9.47,3.66,8.92,4.87,8.71c2.74-.46,3.2-10.1,5.83-10.81s8.28,7.26,10.86,6.36,1.65-10.51,4.2-11.5,8.78,6.59,11.32,5.6,1.57-10.62,4.15-11.53,8.26,7,10.9,6.3,3-10.38,5.75-10.85,6.54,8.4,9.34,8.27,5.63-9.32,8.45-9.06c1.52.14,1.88,9.52,3.4,9.74s4.6-8.68,6.11-8.4,1.09,9.65,2.58,10,5.11-8.4,6.6-8.06.72,9.69,2.21,10,5.24-8.3,6.72-8,.78,9.71,2.27,10,5-8.42,6.5-8.12,1.24,9.67,2.74,9.92,4.13-8.79,5.63-8.75,3.6,9.23,5.11,9.06,1.35-9.55,2.85-9.91,5.91,8,7.38,7.5-.8-9.68.64-10.29,6.92,7.17,8.35,6.51-1.37-9.67.06-10.3,6.75,7.25,8.22,6.67-.57-9.77,1-10.26c3.08-1,8,7.48,11.08,7.31s6.71-9.18,9.83-8.7,4,10.2,7,11.08,9-6.92,12-5.86,2.51,10.82,5.46,11.87,9-6.69,12-5.81,3.84,10.65,6.89,11.17,6.92-8.4,10-8.48,7.67,8.59,10.78,7.73c.85-.23-1.36-9.31-.54-9.59s5.18,8.05,6,7.73-2.25-9.18-1.45-9.51,5.53,7.8,6.33,7.47-2.2-9.21-1.39-9.52,5,8.08,5.84,7.81-1.12-9.39-.27-9.59,3.6,8.71,4.48,8.59.8-9.42,1.69-9.45c1.26,0,2.61,9.22,3.82,9.24s2.8-9.19,4-9.13,1.94,9.4,3.16,9.48,3-9.1,4.25-9,2.16,9.37,3.39,9.39,2.23-9.27,3.47-9.33,3.38,9.06,4.61,8.89.56-9.47,1.79-9.75,5.11,8.28,6.31,7.88c.44-.15-2.65-9-2.23-9.12s4.81,8.12,5.22,7.93-3.35-8.75-2.93-8.94,5,8,5.4,7.82-3-8.87-2.63-9,4.18,8.4,4.61,8.27-1.59-9.21-1.14-9.3,2.23,9,2.69,9,.86-9.28,1.33-9.25c.19,0-1,9.17-.88,9.22s3.34-8.69,3.51-8.62-3.93,8.44-3.76,8.53,5.47-7.64,5.62-7.54-5.27,7.77-5.12,7.88,5.87-7.37,6-7.27-4.82,8-4.66,8.12,4.56-8.13,4.73-8.06-2.58,8.92-2.39,9c.44.1,2.67-8.92,3.12-8.86s-.18,9.32.27,9.35,1.36-9.2,1.82-9.19.94,9.28,1.39,9.27.48-9.29.93-9.32,1.57,9.2,2,9.17.09-9.31.54-9.35,1.72,9.17,2.17,9.14.19-9.32.65-9.35,1.82,9.15,2.35,9.08-.55-9.3-.07-9.37,2.37,9,2.84,9-.49-9.3,0-9.36,2.11,9.09,2.56,9.05.09-9.33.54-9.35,1.22,9.22,1.65,9.22,1.77-9.17,2.18-9.11-2.39,8.7-2.07,8.9,7.24-6.09,7.51-5.73-8,5-7.83,5.47,9.6-1.54,9.68-1.09-9.49,1.9-9.46,2.35,9.72.73,9.71,1.18-9.72.43-9.75.87,9.58,1.77,9.53,2.2-9.74-.22-9.8.2,9.5,2.08,9.45,2.48c-.16,1.23-9.94,1.18-10.13,2.4s9.2,3.88,9,5.1-10,.95-10.19,2.17,9.18,3.88,9,5.1-10,1.15-10.14,2.37,9.33,3.49,9.21,4.72-9.88,1.78-9.94,3,9.6,2.68,9.61,3.92-9.63,2.78-9.54,4c.14,1.87,10,3,10.17,4.83s-9.21,4.75-9,6.61,10.12,2.5,10.4,4.36-9,5-8.75,6.86,10.18,2.37,10.46,4.22-9,5-8.78,6.83,10.14,2.57,10.36,4.43-9.21,4.63-9,6.5,10,3.1,10.09,5c.26,4.77-9.19,10-9,14.75s10.14,9.15,10.37,13.93-9.22,10-9,14.74,10.2,9.09,10.48,13.86-9.08,10.11-8.73,14.87,10.41,8.85,10.84,13.61-8.73,10.4-8.19,15.15,10.77,8.41,11.45,13.14-8.17,10.83-7.34,15.55c.43,2.47,10.42,3.51,10.8,6s-8.87,6.18-8.53,8.64,10.28,3.85,10.57,6.32-9.07,5.9-8.81,8.38,10.15,4.12,10.38,6.6-9.23,5.68-9,8.16,10.06,4.31,10.24,6.79-9.33,5.52-9.17,8,10,4.45,10.16,7c.14,2.27-9.45,4.93-9.39,7.21s9.81,4.41,9.83,6.69-9.66,4.59-9.65,6.87,9.71,4.55,9.72,6.83-9.65,4.68-9.59,6.95,9.82,4.27,9.94,6.54-9.4,5.16-9.19,7.43,10.1,3.53,10.43,5.79-8.83,6-8.36,8.27c.41,1.91,10.31,1.94,10.74,3.82s-8.62,5.73-8.19,7.61,10.34,1.84,10.77,3.72-8.65,5.66-8.24,7.55,10.31,2,10.68,3.91-8.84,5.35-8.52,7.25,10.21,2.51,10.47,4.42-9.16,4.79-9,6.72,10,3.22,10.09,5.16-9.47,4.36-9.33,6.3,9.95,3.2,10.11,5.13-9.34,4.57-9.17,6.5,10,3.11,10.18,5-9.34,4.56-9.19,6.49,10,3.27,10.09,5.2-9.46,4.29-9.38,6.22,9.83,3.68,9.85,5.61-9,1.56-9.09,3.48c-1.61.8,2,8.26.12,8.72s-5.35-8.38-7.29-8.19-3.13,9.52-5.06,9.54-3.59-9.3-5.5-9.39-4.4,9-6.28,8.87-2.88-9.57-4.74-9.76-4.79,8.83-6.63,8.65-3-9.6-4.77-9.74c-2-.15-4.25,9-6,9-1.53,0-3.23-9.25-4.75-9.2s-2.53,9.38-4,9.48-3.84-9-5.35-8.9-2,9.51-3.49,9.68-4.26-8.84-5.77-8.65-1.59,9.58-3.1,9.8-4.52-8.72-6-8.49-1.4,9.62-2.9,9.86-4.62-8.67-6.13-8.43c-3.23.51-4.86,10.16-8.09,10.66s-8-8.17-11.25-7.69-5,10.13-8.2,10.6-7.94-8.24-11.18-7.79-5.05,10.09-8.28,10.53-7.88-8.29-11.12-7.86-5.11,10-8.36,10.47-7.82-8.34-11.06-7.92-5.18,10-8.43,10.43c-7.15.91-15.57-7.41-22.73-6.56s-13.12,10.89-20.28,11.69-15.46-7.65-22.62-6.9-13.31,10.68-20.49,11.36-15.31-7.88-22.49-7.25-13.5,10.46-20.69,11-15.16-8.14-22.36-7.63-13.68,10.24-20.89,10.68-15-8.39-22.22-8c-3.6.19-6.63,9.64-10.22,9.82s-7.72-8.89-11.31-8.72-6.71,9.59-10.3,9.73-7.59-9-11.18-8.87-6.87,9.49-10.47,9.57-7.38-9.13-11-9.1-7.13,9.32-10.72,9.3-7.09-9.33-10.69-9.41-7.46,9.09-11,8.94-6.53-9.56-10-9.76-7.61,8.81-11.09,8.55-6.17-9.78-9.64-10.09-7.88,8.58-11.36,8.23-5.9-9.94-9.37-10.32-8.07,8.41-11.53,8-5.73-10-9.19-10.47-8.17,8.31-11.63,7.87-5.66-10.08-9.13-10.53c-6.85-.89-14.93,7.43-21.78,6.61s-12.62-10.81-19.48-11.55-14.71,7.8-21.59,7.18-13-10.43-19.87-10.92-14.36,8.34-21.26,8-13.48-9.85-20.39-10-13.86,9-20.77,9.1-14.07-9.08-21-8.81-13.18,9.9-20.08,10.4c-8.3.61-17.5-7.88-25.75-7s-15.28,11-23.5,12.13-17.92-6.9-26.11-5.63S910,689.88,901.85,691.3s-18.16-6.19-26.31-4.65-14.31,12.22-22.44,13.85-18.29-5.78-26.41-4.1-14.11,12.44-22.22,14.13-18.33-5.66-26.45-4c-8.48,1.76-14.77,12.65-23.22,14.55S735.6,716,727.17,718s-14.41,13-22.82,15.12-19.26-4.82-27.66-2.73-14.35,13.15-22.75,15.22-19.22-4.89-27.64-2.9-14.57,13-23,14.84-19.07-5.35-27.55-3.62-15.07,12.46-23.6,14-18.83-6.13-27.38-4.72-15.5,11.93-24.07,13.24-18.68-6.57-27.26-5.33-15.74,11.61-24.33,12.79-18.57-6.87-27.17-5.74-15.88,11.42-24.49,12.51-18.52-7-27.12-5.94S354.39,796,345.78,797.12s-18.52-7-27.13-5.94c-5.37.68-9.41,10.56-14.79,11.26s-12.07-7.79-17.44-7.1S277,805.9,271.58,806.55s-12-7.91-17.35-7.31-9.69,10.39-15.09,10.91-11.71-8.23-17.11-7.81-10.11,10-15.52,10.33-11.28-8.74-16.7-8.59-10.7,9.48-16.13,9.45c-3.59,0-6.87-9.4-10.45-9.62s-7.95,8.72-11.51,8.34-5.89-10-9.44-10.54-8.64,8.06-12.17,7.44-5.23-10.37-8.75-11.06-9,7.66-12.49,6.93-5-10.52-8.45-11.27-9.06,7.57-12.56,6.84-5-10.51-8.55-11.2c-2.48-.48-6.76,8.17-9.15,7.74s-3.08-10-5.46-10.45-7,8.07-9.35,7.51-2.16-10.11-4.49-10.84-8.19,7-10.44,6,.24-10.2-1.87-11.5-9.81,4.71-11.74,3.1c-1.78-1.5,3.32-9.68,1.62-11.56-1.55-1.7-10.71,2.07-12.19,0-.4-.56,7.12-6.43,6.71-7s-8.62,4.4-9,3.87,6.82-6.71,6.39-7.24-8.47,4.68-8.91,4.16,6.69-6.83,6.25-7.35-8.43,4.75-8.86,4.23,6.73-6.77,6.3-7.3-8.54,4.59-9,4,7-6.56,6.54-7.11c-.24-.32-8.28,4.85-8.51,4.56s7.29-6.14,7.06-6.44-8.38,4.73-8.6,4.42,7.75-5.56,7.55-5.88S1.17,750,1,749.62s8.81-3.79,8.7-4.15-9.66,1-9.71.67,9.6-1.1,9.61-1.49S0,743,.09,742.65c.14-.88,9.72.67,10.11-.26s-7.95-5.7-7.45-6.56,9.27,3.24,9.83,2.43-6.83-6.89-6.23-7.66,8.92,4.1,9.53,3.36-6.38-7.26-5.77-8,8.86,4.27,9.46,3.54-6.47-7.16-5.91-7.88,9.23,3.6,9.7,2.87c.63-1-6.95-6.89-6.28-7.92s9.55,2.9,10.21,1.87-7-6.79-6.41-7.82,9.68,2.52,10.28,1.48-7.47-6.36-6.92-7.43,9.9,1.68,10.37.59-8.17-5.47-7.79-6.58,10.07.19,10.34-1-9.09-3.81-9-5c0-.38,9.74-.2,9.75-.58s-9.7-.71-9.71-1.09,9.64-1.3,9.6-1.68-9.72.12-9.77-.26,9.54-1.82,9.49-2.2-9.73.37-9.77,0,9.54-1.77,9.5-2.15-9.74,0-9.77-.36,9.64-1.13,9.63-1.51c0-1.16-9.69-2.47-9.63-3.61s9.82-1.62,9.93-2.75-9.41-3.27-9.28-4.4,9.92-1.23,10.05-2.37-9.41-3.18-9.31-4.32,9.85-1.77,9.88-2.91-9.67-2.19-9.74-3.34,9.46-3.19,9.28-4.33-9.9-.36-10.22-1.49c-.17-.62,9-3.75,8.78-4.35s-9.67,1.48-9.86.88,8.86-3.92,8.67-4.52-9.71,1.25-9.87.65,9.15-3.21,9-3.83-9.8,0-9.87-.59,9.59-1.59,9.6-2.23S25,637.51,25,636.87,34,639,34.14,638.32c.41-.13-4.35-7.38-4-7.47s4.32,8.31,4.72,8.08-5.1-7.84-4.75-8.14,7.29,6.18,7.6,5.87-6.76-6.69-6.49-7,8,5.31,8.27,5-7.25-6.22-7-6.53,8.28,4.91,8.53,4.58S33.1,627.54,33.34,627.22Z"/></g></svg>