<svg xmlns="http://www.w3.org/2000/svg" xmlns:xlink="http://www.w3.org/1999/xlink" viewBox="0 0 750 409.14"><defs><style>.cls-1,.cls-19{fill:none;}.cls-2{fill:url(#linear-gradient);}.cls-3{clip-path:url(#clip-path);}.cls-4{fill:url(#linear-gradient-2);}.cls-5{fill:url(#linear-gradient-3);}.cls-6{fill:url(#linear-gradient-4);}.cls-7{fill:url(#linear-gradient-5);}.cls-8{fill:url(#linear-gradient-6);}.cls-9{fill:url(#linear-gradient-7);}.cls-10{fill:url(#linear-gradient-8);}.cls-11{fill:#1e1e44;}.cls-12{fill:url(#linear-gradient-9);}.cls-13{fill:url(#linear-gradient-10);}.cls-14{fill:url(#linear-gradient-11);}.cls-15{fill:url(#linear-gradient-12);}.cls-16{fill:url(#linear-gradient-13);}.cls-17{fill:url(#linear-gradient-14);}.cls-18{fill:url(#linear-gradient-15);}.cls-19{stroke:#1e1e44;stroke-miterlimit:10;}.cls-20{fill:#2e1a53;}.cls-21{fill:#3f1760;}.cls-22{fill:url(#linear-gradient-16);}.cls-23{fill:url(#linear-gradient-17);}.cls-24{fill:url(#linear-gradient-18);}</style><linearGradient id="linear-gradient" x1="538.53" y1="4026.15" x2="538.53" y2="4381.97" gradientTransform="translate(-163.53 -3150.84) scale(1 0.82)" gradientUnits="userSpaceOnUse"><stop offset="0" stop-color="#96288b"/><stop offset="0.86" stop-color="#ef5c6e"/></linearGradient><clipPath id="clip-path"><rect class="cls-1" x="-0.25" y="-90.86" width="750.5" height="500"/></clipPath><linearGradient id="linear-gradient-2" x1="157.99" y1="135.61" x2="157.99" y2="28.79" gradientUnits="userSpaceOnUse"><stop offset="0" stop-color="#552743" stop-opacity="0"/><stop offset="0.41" stop-color="#542c48" stop-opacity="0.48"/><stop offset="0.79" stop-color="#52304c" stop-opacity="0.86"/><stop offset="1" stop-color="#52314e"/></linearGradient><linearGradient id="linear-gradient-3" x1="333.49" y1="178.31" x2="331.79" y2="-5.55" gradientTransform="matrix(-1, 0, 0, 1, 913.53, 0)" gradientUnits="userSpaceOnUse"><stop offset="0.2" stop-color="#552743" stop-opacity="0"/><stop offset="0.32" stop-color="#542945" stop-opacity="0.2"/><stop offset="0.61" stop-color="#532d4a" stop-opacity="0.64"/><stop offset="0.85" stop-color="#52304d" stop-opacity="0.9"/><stop offset="1" stop-color="#52314e"/></linearGradient><linearGradient id="linear-gradient-4" x1="739.47" y1="138.33" x2="740.31" y2="100.43" gradientTransform="matrix(-1, 0, 0, 1, 1347.55, 0)" xlink:href="#linear-gradient-2"/><linearGradient id="linear-gradient-5" x1="112.4" y1="154.52" x2="111.76" y2="84.85" gradientUnits="userSpaceOnUse"><stop offset="0.29" stop-color="#552743" stop-opacity="0"/><stop offset="0.4" stop-color="#542945" stop-opacity="0.2"/><stop offset="0.65" stop-color="#532d4a" stop-opacity="0.64"/><stop offset="0.86" stop-color="#52304d" stop-opacity="0.9"/><stop offset="1" stop-color="#52314e"/></linearGradient><linearGradient id="linear-gradient-6" x1="375" y1="158.32" x2="375" y2="407.8" gradientUnits="userSpaceOnUse"><stop offset="0" stop-color="#b320ad"/><stop offset="0.36" stop-color="#670e82"/><stop offset="1" stop-color="#1e1e44"/></linearGradient><linearGradient id="linear-gradient-7" x1="110.59" y1="-11.47" x2="159.35" y2="198.8" gradientUnits="userSpaceOnUse"><stop offset="0" stop-color="#1e1e44" stop-opacity="0.71"/><stop offset="0.11" stop-color="#1e1e44" stop-opacity="0.53"/><stop offset="1" stop-color="#1e1e44" stop-opacity="0"/></linearGradient><linearGradient id="linear-gradient-8" x1="112.68" y1="177.86" x2="106.57" y2="-62.47" gradientUnits="userSpaceOnUse"><stop offset="0" stop-color="#1e1e44" stop-opacity="0"/><stop offset="0.37" stop-color="#1e1e44" stop-opacity="0.32"/><stop offset="1" stop-color="#1e1e44"/></linearGradient><linearGradient id="linear-gradient-9" x1="375" y1="397.07" x2="375" y2="277.49" gradientUnits="userSpaceOnUse"><stop offset="0" stop-color="#1e1e44" stop-opacity="0"/><stop offset="0.28" stop-color="#1e1e44" stop-opacity="0.05"/><stop offset="0.5" stop-color="#1e1e44" stop-opacity="0.2"/><stop offset="0.71" stop-color="#1e1e44" stop-opacity="0.45"/><stop offset="0.91" stop-color="#1e1e44" stop-opacity="0.8"/><stop offset="1" stop-color="#1e1e44"/></linearGradient><linearGradient id="linear-gradient-10" x1="614.66" y1="48.89" x2="585.13" y2="200.63" xlink:href="#linear-gradient-7"/><linearGradient id="linear-gradient-11" x1="607.52" y1="179.69" x2="608.54" y2="-78.98" xlink:href="#linear-gradient-8"/><linearGradient id="linear-gradient-12" x1="1217.99" y1="-131.59" x2="1088.52" y2="105.57" gradientTransform="translate(-431.85 253.91) rotate(-15.85)" xlink:href="#linear-gradient-5"/><linearGradient id="linear-gradient-13" x1="403.66" y1="-709.57" x2="-176.53" y2="242.39" gradientTransform="translate(797.46 -136.92) rotate(25.84)" xlink:href="#linear-gradient-5"/><linearGradient id="linear-gradient-14" x1="673.36" y1="57.16" x2="673.36" y2="89.4" gradientUnits="userSpaceOnUse"><stop offset="0.16" stop-color="#fffffd" stop-opacity="0.37"/><stop offset="0.3" stop-color="#fffffd" stop-opacity="0.26"/><stop offset="0.48" stop-color="#fffffd" stop-opacity="0.15"/><stop offset="0.66" stop-color="#fffffd" stop-opacity="0.07"/><stop offset="0.83" stop-color="#fffffd" stop-opacity="0.02"/><stop offset="1" stop-color="#fffffd" stop-opacity="0"/></linearGradient><linearGradient id="linear-gradient-15" x1="112.33" y1="-0.18" x2="112.33" y2="34.39" xlink:href="#linear-gradient-14"/><linearGradient id="linear-gradient-16" x1="574.85" y1="252.41" x2="574.44" y2="213.2" xlink:href="#linear-gradient-8"/><linearGradient id="linear-gradient-17" x1="702.57" y1="229.75" x2="702.57" y2="180.22" xlink:href="#linear-gradient-8"/><linearGradient id="linear-gradient-18" x1="114.72" y1="233.36" x2="114.72" y2="134.83" xlink:href="#linear-gradient-8"/></defs><g id="BACKGROUND"><rect class="cls-2" y="-90.86" width="750" height="500" transform="translate(750 318.27) rotate(180)"/></g><g id="OBJECTS"><g class="cls-3"><path class="cls-4" d="M0-51.92c37.43,0,48.16,47,65.8,90.89,22.39,55.7,55.55-6.53,89.06,0,26.78,5.26,51.27,84.34,70.53,83.37s33.26-25.81,49.27-23.86S302,130.18,316,138.79H0Z"/><path class="cls-5" d="M478.75,93c17.78,8.63,49.08,30.18,96.71-39,44.89-65.24,84.27-9,110.2-25.21,32.44-20.34,25-81.27,64.34-97.51V138.79H410.81S446.13,77.16,478.75,93Z"/><path class="cls-6" d="M750,96.09c-33.74,0-42.3,12.69-58.2,22.52-20.17,12.47-51.16-3.63-81.36-2.16-24.14,1.18-46.21,18.89-63.57,18.67s-30-5.78-44.4-5.34-24.6,7.08-37.25,9H750Z"/><path class="cls-7" d="M172.22,119.53c-24.84,14.95-32.09,10.57-56.69-13.22-28.7-27.77-47.2,16.13-64.36,9.91-21.48-7.79-35.8-34-51.17-56.9v79.47H224.51S197.05,104.58,172.22,119.53Z"/><rect class="cls-8" y="138.79" width="750" height="270.34"/><path class="cls-9" d="M0,247.11c37.43,0,48.16-26.69,65.8-51.62,22.39-31.64,55.55,3.71,89.06,0,26.78-3,51.27-47.9,70.53-47.34s33.26,14.65,49.27,13.55,27.29-18,41.32-22.88H0Z"/><path class="cls-10" d="M172.22,149.74c-24.84-8.49-32.09-6-56.69,7.51-28.7,15.76-47.2-9.17-64.36-5.63C29.69,156,15.37,170.9,0,183.93V138.79H224.51S197.05,158.23,172.22,149.74Z"/><rect class="cls-11" x="383.18" y="185.69" width="3.87" height="13.68" transform="translate(770.24 385.07) rotate(180)"/><rect class="cls-11" x="362.94" y="185.69" width="3.87" height="13.68"/><polygon class="cls-11" points="329.65 276.09 338.61 276.09 340.91 207.51 331.95 207.51 329.65 276.09"/><polygon class="cls-11" points="341.18 199.37 341.29 196 341.64 185.69 332.68 185.69 332.38 194.66 332.23 199.37 341.18 199.37"/><polygon class="cls-11" points="420.35 276.09 411.39 276.09 409.09 207.51 418.05 207.51 420.35 276.09"/><polygon class="cls-11" points="408.82 199.37 408.71 196 408.36 185.69 417.32 185.69 417.62 194.66 417.77 199.37 408.82 199.37"/><polygon class="cls-11" points="337.92 296.74 338.61 276.09 329.65 276.09 328.96 296.74 337.92 296.74"/><polygon class="cls-11" points="317.2 248.16 315.57 296.74 323.99 296.74 325.62 248.16 317.2 248.16"/><polygon class="cls-11" points="315.87 248.05 315.81 249.98 326.88 249.98 326.95 248.05 315.87 248.05"/><polygon class="cls-11" points="343.58 248.16 341.95 296.74 350.37 296.74 352 248.16 343.58 248.16"/><polygon class="cls-11" points="342.25 248.05 342.19 249.98 353.26 249.98 353.33 248.05 342.25 248.05"/><rect class="cls-11" x="369.84" y="185.69" width="10.32" height="13.68"/><rect class="cls-11" x="315.59" y="199.37" width="118.82" height="8.13"/><polygon class="cls-11" points="314.24 185.69 435.76 185.69 437.69 180.52 312.31 180.52 314.24 185.69"/><path class="cls-11" d="M445.42,170.74s-37.07,4.19-70.42,4.19-70.42-4.19-70.42-4.19l2,9.78H443.39Z"/><path class="cls-11" d="M450.27,166.51S410.72,171,375,171s-75.27-4.49-75.27-4.49L301.91,177H448.09Z"/><path class="cls-11" d="M345.94,208.89a18.68,18.68,0,0,1-2.89,1.21,4.91,4.91,0,0,0,2.93,3,4.34,4.34,0,0,0,3.88-.4c.9-.56,1.77-1.15,2.63-1.76A4.87,4.87,0,0,0,345.94,208.89Z"/><path class="cls-11" d="M354.6,211.39c-.84.63-1.7,1.25-2.57,1.84a4.66,4.66,0,0,0,7,1.33c.82-.66,1.64-1.36,2.44-2A4.74,4.74,0,0,0,354.6,211.39Z"/><path class="cls-11" d="M363.57,212.78c-.79.7-1.59,1.41-2.41,2.09a4.65,4.65,0,0,0,7,.7l2.3-2.23A4.72,4.72,0,0,0,363.57,212.78Z"/><path class="cls-11" d="M372.63,213.42c-.74.76-1.49,1.53-2.26,2.28a4.65,4.65,0,0,0,7.05.08c.72-.82,1.42-1.62,2.11-2.44A4.7,4.7,0,0,0,372.63,213.42Z"/><path class="cls-11" d="M381.69,213.21l-2.06,2.49a4.64,4.64,0,0,0,7-.56c.66-.88,1.31-1.73,1.94-2.62A4.73,4.73,0,0,0,381.69,213.21Z"/><path class="cls-11" d="M390.73,212.22c-.62.9-1.25,1.76-1.89,2.65a4.65,4.65,0,0,0,7-1.16c.59-.92,1.17-1.84,1.71-2.79A4.75,4.75,0,0,0,390.73,212.22Z"/><path class="cls-11" d="M399.61,210.39c-.52,1-1.07,1.91-1.64,2.84a4.66,4.66,0,0,0,6.86-2.13A21.42,21.42,0,0,0,406,208a4.76,4.76,0,0,0-3.53-.12A5.34,5.34,0,0,0,399.61,210.39Z"/><rect class="cls-11" x="312.31" y="256.32" width="43.21" height="2.97"/><polygon class="cls-11" points="412.08 296.74 411.39 276.09 420.35 276.09 421.04 296.74 412.08 296.74"/><polygon class="cls-11" points="432.8 248.16 434.43 296.74 426.01 296.74 424.38 248.16 432.8 248.16"/><polygon class="cls-11" points="434.13 248.05 434.19 249.98 423.12 249.98 423.05 248.05 434.13 248.05"/><polygon class="cls-11" points="406.42 248.16 408.05 296.74 399.63 296.74 398 248.16 406.42 248.16"/><polygon class="cls-11" points="407.75 248.05 407.81 249.98 396.74 249.98 396.67 248.05 407.75 248.05"/><rect class="cls-11" x="394.48" y="256.32" width="43.21" height="2.97" transform="translate(832.17 515.6) rotate(180)"/><path class="cls-12" d="M448.09,389.2h-4l-.74-2.76h-5.7l-1.92-4.05H417.32l.3-7,.15-3.68h16.64v-6.35H418.05l1.63-38.12h5l-.21,5h-1.33l-.07,1.5h11.08l.06-1.5h-1.33l.22-5h4.61v-2.31h-4.51l1.25-29.25H426l-1.25,29.25h-5l.57-13.13.69-16.12h-9l-.69,16.12-.56,13.13h-4l1.26-29.25h-8.42l-1.26,29.25h-3.89v2.31h3.79l-.21,5h-1.32l-.07,1.5h11.08l.06-1.5h-1.33l.21-5h4l-1.64,38.12H340.91l-1.64-38.12h4l.21,5h-1.33l.06,1.5h11.08l-.07-1.5h-1.32l-.21-5h3.79v-2.31h-3.89l-1.26-29.25H342l1.26,29.25h-4l-.56-13.13-.69-16.12h-9l.69,16.12.57,13.13h-5L324,295.68h-8.42l1.25,29.25h-4.51v2.31h4.61l.22,5h-1.33l.06,1.5H327l-.07-1.5h-1.33l-.21-5h5L332,365.36H315.59v6.35h16.64l.15,3.68.3,7H314.23l-1.92,4.05h-5.7l-.74,2.76h-4l-2.18,8.18s39.55-3.51,75.27-3.51,75.27,3.51,75.27,3.51Zm-85.15-6.81h-21.3l-.35-8-.11-2.64h21.76Zm6.9,0h-3V371.71h3Zm13.34,0h-3V371.71h3Zm25.53-8-.35,8h-21.3V371.71h21.76Zm-11.2-11.66c.86-.47,1.73-.93,2.63-1.37A5.41,5.41,0,0,1,404,361a4.5,4.5,0,0,1,2.93,2.33,20.38,20.38,0,0,0-2.89.94A5.6,5.6,0,0,1,397.51,362.69Zm-8.93-1.25c.8-.53,1.62-1.07,2.44-1.59a5.46,5.46,0,0,1,7,1c-.87.46-1.73.95-2.57,1.44A5.62,5.62,0,0,1,388.58,361.44Zm-9.05-.63,2.3-1.74a5.52,5.52,0,0,1,7,.54c-.82.53-1.62,1.09-2.41,1.63A5.65,5.65,0,0,1,379.53,360.81Zm-9.06,0c.69-.64,1.39-1.27,2.11-1.91a5.54,5.54,0,0,1,7.05.07c-.77.58-1.52,1.18-2.26,1.78A5.66,5.66,0,0,1,370.47,360.81Zm-9.05.63c.63-.69,1.28-1.35,1.94-2a5.51,5.51,0,0,1,7-.43l-2.06,1.94A5.63,5.63,0,0,1,361.42,361.44Zm-.26-1.83c-.64.69-1.27,1.37-1.89,2.07a5.61,5.61,0,0,1-6.78,1c.54-.73,1.12-1.45,1.71-2.17A5.47,5.47,0,0,1,361.16,359.61ZM352,360.89c-.57.73-1.12,1.47-1.64,2.22a5.15,5.15,0,0,1-2.81,2,6.09,6.09,0,0,1-3.53-.09,14.53,14.53,0,0,1,1.12-2.42C346.38,360.39,349.74,359.63,352,360.89Z"/><path class="cls-13" d="M478.75,176.79c17.79-7.15,49.08-25,96.71,32.39,44.89,54.1,84.27,7.42,110.2,20.9C718.1,247,710.65,297.49,750,311V138.8H410.81S446.13,189.92,478.75,176.79Z"/><path class="cls-14" d="M750,174.22c-33.74,0-42.3-10.53-58.2-18.68-20.17-10.35-51.16,3-81.36,1.79-24.14-1-46.21-15.67-63.57-15.49s-30,4.8-44.4,4.44-24.6-5.88-37.24-7.48H750Z"/><path class="cls-15" d="M700.49-27.62c5.61-13.16,11.33-26.86,10.87-41.13a144.82,144.82,0,0,0,6.67-22c-1.81,13.28-3.17,26,0,39.28a114,114,0,0,0,1.26-46.16,73.06,73.06,0,0,0,.79-15.68,63.72,63.72,0,0,0-2-12.2,119.11,119.11,0,0,0,18.59,27c-1-2.77-1.89-5.47-3.16-8.14-6.2-13-12.84-25-22.12-35.95a135.59,135.59,0,0,0-8.07-13.6,96.43,96.43,0,0,0,32.2,23.46c-.68-3.16-1.94-5-3.94-7.54a65.7,65.7,0,0,0-32.43-21.91c-3.2-4.45-6.47-8.68-9.55-12.67l-5.15-6.66a92,92,0,0,0,42.47,17.85A60,60,0,0,0,706-177.18c-7.66-3.12-14.44-4-22.48-5.51l-17.41-22.53a82.09,82.09,0,0,0,45.3,22.78c-16.17-14.27-32.82-25.09-52.92-32.65l-1.76-2.28c-1.5-1.94-3-3.77-4.49-5.4a2.18,2.18,0,0,1-1.44.38,70.18,70.18,0,0,1,4.9,5.81l9.19,11.9c.21,9.52.68,19.07,2.44,28.43,1.81,9.62,5,19.08,10.4,27.26a140.56,140.56,0,0,0-1.9-15c-2.17-13.62-4.45-27-10.08-39.57l22.8,29.51,2.07,2.68c-1.13,12.47-2.49,24.63-.15,36.94a64.54,64.54,0,0,0,2,8,72.26,72.26,0,0,0-2.29,19.3q2.91-5.53,5.44-11.27c.45,1,.92,2,1.42,3,.13-2.2.15-4.39.13-6.59a190.22,190.22,0,0,0,9-27.1,97.88,97.88,0,0,1,9.39,20,53.14,53.14,0,0,0-10.1,20.56,81,81,0,0,0-2.17,11.92l-.19.14c-5.2,4.08-10.11,9.07-12.81,15.11,4-3,8.3-5.59,12.43-8.4q-.19,3.49-.27,7c.77-1.33,1.54-2.66,2.28-4q1.85-3.39,3.42-6.92a44.07,44.07,0,0,0,10.53-11.27,92,92,0,0,1-1.85,13.22c-.23,1.08-.47,2.17-.73,3.25C701.63-78.74,689-67.56,679.7-52.69c13.51-5,23.63-16.22,32.55-27.51a46.11,46.11,0,0,0,2.8-3.85,152.49,152.49,0,0,1-6.14,17.91,23.52,23.52,0,0,0-2.36,5.49q-1.41,3.12-2.92,6.19c-7.37,1.57-12.48,5.38-18.11,10.55A211.74,211.74,0,0,0,666-23.32,87.26,87.26,0,0,0,702.26-51.7c-2.35,4.62-4.86,9.15-7.46,13.6-2.8,2.53-4.56,5.75-6.24,9.29-.5,1.06-1,2.13-1.45,3.21-1.1,1.72-2.21,3.42-3.32,5.12a32.78,32.78,0,0,0-16.54,7.6A150,150,0,0,0,648.77,4.89a84.48,84.48,0,0,0,32.79-22C678.35-12.32,675.13-7.63,672-3a129,129,0,0,0-20.66,23.47,69,69,0,0,0-3.66,6.5A64.34,64.34,0,0,0,673.38-2.78c3.73-5.43,7.55-11,11.33-16.74a113.53,113.53,0,0,0-6.16,28.45c2.92-7.75,7.76-14.64,11-22.25s5-16,6.47-24.34c3.19-5.46,6.23-11,9-16.76A255.48,255.48,0,0,0,700.49-27.62Zm-3.66-110.32a140,140,0,0,0-1.3-14.61A102.06,102.06,0,0,0,691-170.84a233.89,233.89,0,0,1,15,21.45C703.38-145.29,699.34-142.16,696.83-137.94Zm14.51,36.46a98.93,98.93,0,0,0,5.21-24.58,62.56,62.56,0,0,1,2.23,12.82,64.28,64.28,0,0,1,0,7.49A83.1,83.1,0,0,1,711.34-101.48Z"/><path class="cls-16" d="M671.43-20.43c3.46-13.94,6-27.47,5.8-41.8a137.87,137.87,0,0,0,2.41-15.64,96.62,96.62,0,0,0,9.93,38.59c1.49-2.87,1.69-5.1,1.76-8.33a65.67,65.67,0,0,0-11.1-37.53c.36-5.47.53-10.81.69-15.85l.26-8.41a92.09,92.09,0,0,0,21.43,40.78,60.08,60.08,0,0,0-7.53-23.73c-3.94-7.28-8.59-12.27-13.85-18.54l.9-28.47A81.91,81.91,0,0,0,702.6-93c-3.41-21.29-9.37-40.23-20.08-58.85l.09-2.88c.08-2.44.11-4.78,0-7a2.21,2.21,0,0,1-1.36-.63,68,68,0,0,1,.09,7.6l-.47,15a174.45,174.45,0,0,0-16.2,23.49c-4.72,8.58-8.26,17.92-9.31,27.65a143.54,143.54,0,0,0,8.09-12.79c7-11.9,13.75-23.7,17.37-36.95L679.62-101c0,1.11-.07,2.24-.11,3.38-8.8,8.9-17.58,17.43-23.6,28.41a65.75,65.75,0,0,0-3.53,7.5,72.85,72.85,0,0,0-14,13.44c3.85-1.61,7.63-3.37,11.37-5.23-.28,1.05-.56,2.11-.81,3.21,1.49-1.61,2.9-3.29,4.29-5a190.73,190.73,0,0,0,24.22-15.16A98.29,98.29,0,0,1,671.92-49a53.09,53.09,0,0,0-20.86,9.42,79.66,79.66,0,0,0-9.25,7.82l-.24,0C635-32,628-31.24,622.08-28.3c5,.27,9.95,1,14.93,1.42-1.58,1.71-3.13,3.46-4.67,5.23,1.44-.54,2.89-1.08,4.31-1.65,2.39-.95,4.74-2,7.05-3.16a43.77,43.77,0,0,0,15.29-2,92.43,92.43,0,0,1-9.83,9c-.87.7-1.75,1.38-2.63,2.05-17.42-1.76-34.26-1.14-50.9,4.41,13.58,4.76,28.54,2.51,42.61-.54a46.5,46.5,0,0,0,4.61-1.18,153.39,153.39,0,0,1-16.19,10,23,23,0,0,0-5.19,2.67q-3.11,1.53-6.25,3c-6.69-3.48-13.05-3.79-20.69-3.38A212.65,212.65,0,0,0,566.41,1a87.23,87.23,0,0,0,46,1.12Q605.28,5.23,598,7.88c-3.76.17-7.17,1.53-10.71,3.2-1,.48-2,1-3,1.52q-3,1-6,1.87A32.87,32.87,0,0,0,560.7,9.82a149.73,149.73,0,0,0-25.56,2,84.46,84.46,0,0,0,39.3,3.87c-5.53,1.66-11,3.24-16.35,4.77a129,129,0,0,0-30.87,5,72.28,72.28,0,0,0-7,2.69A64.2,64.2,0,0,0,559,21.51c6.34-1.82,12.83-3.69,19.39-5.71a113.6,113.6,0,0,0-22.85,18c7.18-4.13,15.3-6.36,22.66-10.16s14-9.23,20.47-14.67c5.94-2.18,11.83-4.56,17.62-7.2a257.63,257.63,0,0,0-20.57,17.77C608.43,13,621.55,6.06,630.27-5.25A143.5,143.5,0,0,0,649.42-18c-9.84,9.1-18.95,18-25,30.32A114.37,114.37,0,0,0,654.78-22.5a73.48,73.48,0,0,0,10.57-11.6,64.08,64.08,0,0,0,6.18-10.71,120,120,0,0,0-2.84,32.67C669.65-14.93,670.72-17.56,671.43-20.43Zm-8.37-47.45A139.89,139.89,0,0,0,671.35-80a102.25,102.25,0,0,0,8.14-16.94,235.09,235.09,0,0,1-2,26.07C672.79-69.39,667.68-69.54,663.06-67.88Zm1.24,33A66.05,66.05,0,0,1,659.56-29c-2.94-.31-5.72-.89-8.49-1.46a99,99,0,0,0,19.65-15.66A63,63,0,0,1,664.3-34.86Z"/><path class="cls-17" d="M680.56,64.55c-31.5,4.26-70.57,15.69-83.84,17.09H750V72.23c-10.78-1.66-14.13,6.18-22.91,3C716,71.3,703.41,61.46,680.56,64.55Z"/><path class="cls-18" d="M94.3,19.59c-11.13,4-13.51-9.7-33.38.71s-46.11-11-59.62-13C.85,7.2.42,7.15,0,7.11v19L13.18,26H224.67c-13.27-1.4-52.34-12.83-83.83-17.09C118,5.77,105.43,15.61,94.3,19.59Z"/><path class="cls-11" d="M0,318.35v90.79H366.82C302.25,365.5,167.1,331.72,0,318.35Z"/><path class="cls-19" d="M27.62,326.45a73.29,73.29,0,0,0-13-50"/><path class="cls-11" d="M17.43,281.78a24.38,24.38,0,0,1-8.88-19.37A29.45,29.45,0,0,1,18.32,283"/><path class="cls-11" d="M20.47,287.19A21,21,0,0,1,23,270.8a21.93,21.93,0,0,1-2.58,15.51"/><path class="cls-11" d="M20.79,286.72a21.45,21.45,0,0,0-13.38-6.85A13.93,13.93,0,0,0,20.52,287"/><path class="cls-11" d="M25,297.17a20.26,20.26,0,0,1,4.72-18.68A48,48,0,0,1,25,297.17"/><path class="cls-11" d="M25,296.07a13.08,13.08,0,0,0-6.53-5.42,32.39,32.39,0,0,0-7.92-1.76c2.75,5.29,8.38,8.17,13.46,6.88"/><path class="cls-11" d="M26.78,305.52a27.3,27.3,0,0,1,7.76-20.21,34.69,34.69,0,0,1-7.49,21.53"/><path class="cls-11" d="M26.74,304.59c-3.46-5.47-9.47-8-15.65-8.13a19.1,19.1,0,0,0,15.65,8.13"/><path class="cls-11" d="M28.47,314.85a20.37,20.37,0,0,0-12.54-10.62,14.67,14.67,0,0,0,12,10.22"/><path class="cls-11" d="M27.87,315.45a22.1,22.1,0,0,1,8.7-16.51,34.83,34.83,0,0,1-8.49,17.16"/><path class="cls-11" d="M18.27,281.29a32,32,0,0,1-2.4-12,35.42,35.42,0,0,1,2.4,6.16,14.36,14.36,0,0,1,.27,6.61"/><path class="cls-19" d="M167.81,344.73c3.66-17.29,13.83-32.9,27.74-42.6"/><path class="cls-11" d="M191.22,306.13A23,23,0,0,0,205.58,291,27.83,27.83,0,0,0,190,307"/><path class="cls-11" d="M186.67,310.17a21,21,0,0,0,2.72-16.35A22,22,0,0,0,187,309.37"/><path class="cls-11" d="M186.52,309.61a20.73,20.73,0,0,1,14.75-1.77A13.48,13.48,0,0,1,186.69,310"/><path class="cls-11" d="M179.32,318a20.44,20.44,0,0,0,1.32-19.29A48.6,48.6,0,0,0,179.32,318"/><path class="cls-11" d="M179.68,317a12.49,12.49,0,0,1,7.84-2.83,32.41,32.41,0,0,1,8,1.13c-4.23,4-10.43,4.76-14.83,1.77"/><path class="cls-11" d="M175.06,325.26A27.92,27.92,0,0,0,174,303.45a35.58,35.58,0,0,0,.42,23"/><path class="cls-11" d="M175.39,324.39c5-3.94,11.4-4.2,17.28-2.17a18.45,18.45,0,0,1-17.28,2.17"/><path class="cls-11" d="M190.58,305.37a30.74,30.74,0,0,0,6-10.49,33.18,33.18,0,0,0-4.17,5,13.94,13.94,0,0,0-2.29,6.14"/><path class="cls-19" d="M54.92,350.83c1.16-30.43,12.47-60.32,31.45-83.09"/><path class="cls-11" d="M95.71,259.3a16.13,16.13,0,0,0-9.24,4.84,18,18,0,0,0-4.71,9.77C88.17,271.88,93.6,266.07,95.71,259.3Z"/><path class="cls-11" d="M77.25,279.46a20.86,20.86,0,0,1,14.69-7C88,277.35,83.3,278.9,77.25,279.46Z"/><path class="cls-11" d="M75,283.45a33.39,33.39,0,0,1,4.54-18.82C80.33,271.45,79,278.08,75,283.45Z"/><path class="cls-11" d="M91.24,279.5a23,23,0,0,0-18.82,8.66A20.46,20.46,0,0,0,91.24,279.5Z"/><path class="cls-11" d="M68.69,295.86a28.58,28.58,0,0,1,.14-24C71.09,280.34,71.45,289.53,68.69,295.86Z"/><path class="cls-11" d="M72.65,287.4a20.28,20.28,0,0,1,.78-11.79A20.3,20.3,0,0,1,72.65,287.4Z"/><path class="cls-11" d="M85.37,288.72a23,23,0,0,0-17.12,7.4C74.68,297.22,81.21,294.07,85.37,288.72Z"/><path class="cls-11" d="M65,303.81a26.63,26.63,0,0,1-3.1-20.57C65.69,289.07,66.37,296.85,65,303.81Z"/><path class="cls-11" d="M83.42,296A26.43,26.43,0,0,0,64.67,304,17.84,17.84,0,0,0,83.42,296Z"/><path class="cls-19" d="M232.36,364.69c7.86-20.22,22.44-37.38,40.53-47.7"/><path class="cls-11" d="M281.15,313.77a11.15,11.15,0,0,0-7.36.82,12.18,12.18,0,0,0-5.45,5.34A15.3,15.3,0,0,0,281.15,313.77Z"/><path class="cls-11" d="M264,322.47a14.56,14.56,0,0,1,11.54-.85C271.74,323.89,268.23,323.7,264,322.47Z"/><path class="cls-11" d="M261.57,324.57A22.84,22.84,0,0,1,269,313.08C268,317.89,265.53,322,261.57,324.57Z"/><path class="cls-11" d="M273.44,326.2a16.08,16.08,0,0,0-14.71.86A14.29,14.29,0,0,0,273.44,326.2Z"/><path class="cls-11" d="M254.43,331.27a20.1,20.1,0,0,1,5.68-16.16C259.65,321.43,257.77,327.73,254.43,331.27Z"/><path class="cls-11" d="M259.06,326.61a14.18,14.18,0,0,1,3.27-7.74A14.19,14.19,0,0,1,259.06,326.61Z"/><path class="cls-11" d="M267.34,330.86a16.21,16.21,0,0,0-13.27.46A12.78,12.78,0,0,0,267.34,330.86Z"/><path class="cls-11" d="M250.08,335.64A19.15,19.15,0,0,1,252.77,321C254,325.9,252.64,331.32,250.08,335.64Z"/><path class="cls-11" d="M264.32,335.26a18.55,18.55,0,0,0-14.49.4A12.49,12.49,0,0,0,264.32,335.26Z"/><path class="cls-11" d="M246,340.53a22.91,22.91,0,0,1,3.39-17.84C251.27,328.56,249.45,335.52,246,340.53Z"/><path class="cls-11" d="M261.9,341.54a17.7,17.7,0,0,0-17,.48C250.16,344.81,256.92,345,261.9,341.54Z"/><path class="cls-11" d="M241.4,347.29a28.44,28.44,0,0,1,3-16.93A29.89,29.89,0,0,1,241.4,347.29Z"/><path class="cls-11" d="M239.09,350.7a20.6,20.6,0,0,1-.78-19.74C240.54,337.9,241.3,345.84,239.09,350.7Z"/><path class="cls-11" d="M255.42,347.61a18.47,18.47,0,0,0-16.9,3.68A25.07,25.07,0,0,0,255.42,347.61Z"/><path class="cls-11" d="M240.3,348.71a10.7,10.7,0,0,1,6.4-5.44A11.32,11.32,0,0,1,240.3,348.71Z"/><path class="cls-11" d="M250.57,352.82a15.83,15.83,0,0,0-13.87,2.54C241.3,356.32,246.7,355.65,250.57,352.82Z"/><path class="cls-11" d="M234.56,359.13a14.63,14.63,0,0,1-.57-15.3A20.89,20.89,0,0,1,234.56,359.13Z"/><path class="cls-19" d="M104.79,338.53c3-22.88,13.7-44.52,29.64-60.17"/><path class="cls-11" d="M142.08,272.74a12,12,0,0,0-7.32,2.91,13.48,13.48,0,0,0-4.25,7A16.8,16.8,0,0,0,142.08,272.74Z"/><path class="cls-11" d="M126.71,286.46a15.68,15.68,0,0,1,11.59-4.12C135,285.74,131.32,286.53,126.71,286.46Z"/><path class="cls-11" d="M124.73,289.29a25,25,0,0,1,4.77-13.83A19.38,19.38,0,0,1,124.73,289.29Z"/><path class="cls-11" d="M137.27,287.62a17.27,17.27,0,0,0-14.82,5A15.34,15.34,0,0,0,137.27,287.62Z"/><path class="cls-11" d="M119.09,298.15A21.63,21.63,0,0,1,120.9,280C122,286.63,121.63,293.59,119.09,298.15Z"/><path class="cls-11" d="M122.68,292.08a15.32,15.32,0,0,1,1.42-8.83A15.28,15.28,0,0,1,122.68,292.08Z"/><path class="cls-11" d="M132.19,294.1a17.33,17.33,0,0,0-13.45,4.21C123.51,299.66,128.67,297.81,132.19,294.1Z"/><path class="cls-11" d="M115.72,303.85a20.35,20.35,0,0,1-.88-15.78C117.31,292.79,117.27,298.71,115.72,303.85Z"/><path class="cls-11" d="M130.19,299.45a19.83,19.83,0,0,0-14.71,4.49A13.38,13.38,0,0,0,130.19,299.45Z"/><path class="cls-11" d="M112.78,310a24.39,24.39,0,0,1-.94-19.19C115.19,296.28,115.05,303.9,112.78,310Z"/><path class="cls-11" d="M129.27,306.56A18.91,18.91,0,0,0,112,311.84C118.08,313.19,125,311.45,129.27,306.56Z"/><path class="cls-11" d="M109.74,318.19A30.13,30.13,0,0,1,108.65,300,31.78,31.78,0,0,1,109.74,318.19Z"/><path class="cls-11" d="M595.13,319.17a.78.78,0,0,1,.39-.21.68.68,0,0,1,.79.56c3.21,19.18,10.8,36.39,21.94,49.78a94,94,0,0,0,46,30,.67.67,0,0,1,.47.84.68.68,0,0,1-.84.47,95.38,95.38,0,0,1-46.64-30.4c-11.29-13.58-19-31-22.24-50.43A.67.67,0,0,1,595.13,319.17Z"/><path class="cls-11" d="M576,300.32a.62.62,0,0,1,.34-.2.68.68,0,0,1,.83.5c3.31,13.79,11.62,19.69,18.12,18.4,6-1.19,11.9-9,9-27.18a.68.68,0,1,1,1.35-.22c3.05,19.12-3.53,27.43-10.08,28.74-7.14,1.42-16.2-4.79-19.72-19.42A.66.66,0,0,1,576,300.32Z"/><path class="cls-11" d="M583.51,300.33a.72.72,0,0,1,.35-.2.69.69,0,0,1,.82.52c1.39,6.23,2.44,9.84,4.66,13.53a11,11,0,0,0,2.32,3,4,4,0,0,0,3.18,1,3.84,3.84,0,0,0,2.32-1.61,9.68,9.68,0,0,0,1.32-2.86,27.39,27.39,0,0,0,.12-15.74.67.67,0,0,1,.46-.84.68.68,0,0,1,.85.46,28.69,28.69,0,0,1-.12,16.52,11.08,11.08,0,0,1-1.52,3.28,4.89,4.89,0,0,1-7.47.89,12.21,12.21,0,0,1-2.63-3.33c-2.32-3.85-3.4-7.57-4.82-13.94A.69.69,0,0,1,583.51,300.33Z"/><path class="cls-11" d="M589.55,292.55a.65.65,0,0,1,.35-.2.69.69,0,0,1,.82.52c1.93,8.6,3.69,17.36,5.24,26a.68.68,0,1,1-1.34.24c-1.55-8.64-3.31-17.38-5.24-26A.69.69,0,0,1,589.55,292.55Z"/><path class="cls-11" d="M597.57,294.68a1.48,1.48,0,0,1,2-2.18,1.48,1.48,0,0,1-2,2.18Z"/><path class="cls-11" d="M588.19,290.64a1.48,1.48,0,1,1,2.09-.08A1.48,1.48,0,0,1,588.19,290.64Z"/><path class="cls-11" d="M582.43,297.87a1.48,1.48,0,1,1,2.09-.08A1.47,1.47,0,0,1,582.43,297.87Z"/><path class="cls-11" d="M574.5,297.36a1.48,1.48,0,1,1,2.09-.08A1.47,1.47,0,0,1,574.5,297.36Z"/><path class="cls-11" d="M602.66,287.29a1.48,1.48,0,1,1,1.12,1.77A1.48,1.48,0,0,1,602.66,287.29Z"/><path class="cls-11" d="M583.08,293a1,1,0,1,1,1.34-1.45,1,1,0,1,1-1.34,1.45Z"/><path class="cls-11" d="M595.37,302.28a.56.56,0,1,1,.76-.82.56.56,0,0,1-.76.82Z"/><path class="cls-11" d="M595.36,287.91a1.14,1.14,0,1,1,1.61-.07A1.14,1.14,0,0,1,595.36,287.91Z"/><path class="cls-11" d="M750,409.14V247.31A105.48,105.48,0,0,0,695.83,260c-23.3,12.73-42.3,38-50.33,63.35a51.83,51.83,0,0,0-50.42,48.39c-30.93-.67-61.65,13.82-81.48,37.45Z"/><path class="cls-20" d="M58.48,336.77a45.17,45.17,0,0,0-30,33.88C43.71,365.33,55.65,352.65,58.48,336.77Z"/><path class="cls-20" d="M26.51,340a34.06,34.06,0,0,0-9.19,37.07C26.39,366.75,28.31,353.7,26.51,340Z"/><path class="cls-20" d="M151.82,356.83c-21.82,3.6-40.72,21-46,42.51,12.22,0,22.67-2.36,31.72-10.58S150.68,369,151.82,356.83Z"/><path class="cls-20" d="M113.16,360.26a46.48,46.48,0,0,0-11.32,43.63C112.49,389.82,116.39,377.61,113.16,360.26Z"/><path class="cls-20" d="M185.6,369.22a25.93,25.93,0,0,0-28.26,12.15C169.47,384.17,178.76,379.63,185.6,369.22Z"/><path class="cls-20" d="M733,319.39c5.54,14.64,5.64,32.76,1.35,47.82-23.12-19.75-35.29-51.58-31.24-81.72C716.3,293.93,727.47,304.74,733,319.39Zm-52.08,15.34c3.89,12.58,18.53,20.71,31.26,17.38C705.54,339,695.61,333.3,680.93,334.73Zm14.56,61.17c-17-21.36-46-32.39-72.9-27.65C639.19,391.93,668,399.54,695.49,395.9Z"/><path class="cls-21" d="M610.71,240.29h-72c3.12-7.78,14.14-12.2,21.21-7.69,6.22-8.36,16.74-13.92,27-12.26S607.45,230.39,610.71,240.29Z"/><path class="cls-22" d="M610.71,240.29h-72c3.12,3.46,14.14,5.42,21.21,3.42,6.22,3.71,16.74,6.19,27,5.44S607.45,244.69,610.71,240.29Z"/><path class="cls-21" d="M750,183.43c-7-2-14.72-1.6-21,2.09A28.74,28.74,0,0,0,699.85,175c-10.64,2.61-18.49,10.57-20.22,21.4-9.12-3.72-20.91,1.27-24.49,10.45H750Z"/><path class="cls-23" d="M750,206.86H655.14c3.58,6.15,15.37,9.49,24.49,7,1.73,7.26,9.58,12.6,20.22,14.35s22.67-1.15,29.2-7.05c6.23,2.48,14,2.75,21,1.4Z"/><path class="cls-24" d="M95.05,204.81H0v22a91.76,91.76,0,0,0,20.83-.49c15.38-2.18,29-8.5,36.27-16.87,7.76,4,18.08,4.53,27.2,1.72A24,24,0,0,0,95.05,204.81Zm60.07,0h74.32a15.73,15.73,0,0,1-6.85,4.3c-6.51,2.2-16.42,1.13-21.9-1.9-6.52,4.08-16.5,6.09-25.84,5.19C166.9,211.64,159.62,208.79,155.12,204.81Z"/><path class="cls-21" d="M95.05,204.81H0V164.87a51.16,51.16,0,0,1,20.83.9c15.38,3.95,29,15.4,36.27,30.56,7.76-7.27,18.08-8.21,27.2-3.11A27.06,27.06,0,0,1,95.05,204.81Zm60.07,0h74.32a18.45,18.45,0,0,0-6.85-7.8c-6.51-4-16.42-2-21.9,3.45a28.49,28.49,0,0,0-25.84-9.41A29.81,29.81,0,0,0,155.12,204.81Z"/></g></g></svg>