<svg width="150" height="150" viewBox="0 0 150 150" fill="none" xmlns="http://www.w3.org/2000/svg">
<path d="M150.002 75.0009C150.002 116.42 116.423 150 75.0011 150C33.5782 150 -0.000183105 116.42 -0.000183105 75.0009C-0.000183105 33.5788 33.5786 0 75.0011 0C116.424 0 150.002 33.5788 150.002 75.0009Z" fill="#DD4814"/>
<path d="M24.0029 64.9855C18.47 64.9855 13.9874 69.4685 13.9874 75.001C13.9874 80.5309 18.47 85.0135 24.0029 85.0135C29.5328 85.0135 34.0154 80.5309 34.0154 75.001C34.0154 69.4685 29.5328 64.9855 24.0029 64.9855ZM95.498 110.496C90.7086 113.263 89.0664 119.383 91.8331 124.17C94.5962 128.96 100.717 130.601 105.507 127.835C110.296 125.072 111.938 118.951 109.171 114.161C106.408 109.375 100.284 107.733 95.498 110.496ZM45.7534 75.001C45.7534 65.1055 50.6685 56.363 58.1894 51.0691L50.8687 38.8077C42.1078 44.6639 35.5892 53.6127 32.8803 64.0934C36.0412 66.6727 38.0645 70.5992 38.0645 75.0006C38.0645 79.3994 36.0412 83.3258 32.8803 85.9051C35.5857 96.389 42.1043 105.338 50.8687 111.194L58.1894 98.9299C50.6685 93.639 45.7534 84.8971 45.7534 75.001ZM75.0013 45.75C90.2813 45.75 102.817 57.4655 104.133 72.4063L118.402 72.196C117.7 61.1657 112.881 51.2636 105.477 43.9821C101.67 45.4206 97.2717 45.2005 93.4704 43.0093C89.6626 40.8119 87.2751 37.105 86.6225 33.0811C82.9218 32.0598 79.027 31.5006 75.0004 31.5006C68.0784 31.5006 61.5338 33.1265 55.723 36.0026L62.6808 48.4708C66.4238 46.729 70.5995 45.75 75.0013 45.75ZM75.0013 104.249C70.5995 104.249 66.4238 103.27 62.6812 101.528L55.7235 113.996C61.5343 116.876 68.0788 118.502 75.0013 118.502C79.0279 118.502 82.9226 117.942 86.6229 116.918C87.2756 112.894 89.6639 109.191 93.4709 106.989C97.2747 104.794 101.67 104.578 105.477 106.017C112.881 98.7354 117.7 88.8332 118.402 77.803L104.13 77.5927C102.817 92.5375 90.2817 104.249 75.0013 104.249ZM95.4945 39.4996C100.284 42.2654 106.405 40.6271 109.168 35.8377C111.935 31.0482 110.296 24.9269 105.507 22.1602C100.717 19.3971 94.5962 21.0388 91.8291 25.8283C89.0664 30.6151 90.7081 36.7364 95.4945 39.4996Z" fill="white"/>
</svg>
