<svg width="140" height="138" viewBox="0 0 140 138" fill="none" xmlns="http://www.w3.org/2000/svg">
<g style="mix-blend-mode:overlay" opacity="0.25">
<path style="mix-blend-mode:overlay" fill-rule="evenodd" clip-rule="evenodd" d="M98.9237 137.41C101.108 138.261 103.6 138.207 105.805 137.146L134.364 123.404C137.365 121.96 139.273 118.923 139.273 115.59V22.4102C139.273 19.0781 137.365 16.0409 134.364 14.5969L105.805 0.854384C102.911 -0.538158 99.5239 -0.197072 96.9839 1.64948C96.6211 1.91327 96.2755 2.20779 95.9511 2.53236L41.2781 52.4116L17.4636 34.3346C15.2468 32.6517 12.1459 32.7897 10.0869 34.6625L2.44884 41.6105C-0.069653 43.9015 -0.0725397 47.8636 2.4426 50.1582L23.0953 69L2.4426 87.842C-0.0725397 90.1366 -0.069653 94.0988 2.44884 96.3896L10.0869 103.338C12.1459 105.211 15.2468 105.348 17.4636 103.666L41.2781 85.5884L95.9511 135.468C96.816 136.333 97.8316 136.985 98.9237 137.41ZM104.616 37.5102L63.1313 69L104.616 100.49V37.5102Z" fill="url(#paint0_linear_301_20)"/>
</g>
<defs>
<linearGradient id="paint0_linear_301_20" x1="69.9157" y1="6.02486e-05" x2="69.9157" y2="138" gradientUnits="userSpaceOnUse">
<stop stop-color="white"/>
<stop offset="1" stop-color="white" stop-opacity="0"/>
</linearGradient>
</defs>
</svg>
