<svg width="158" height="173" viewBox="0 0 158 173" fill="none" xmlns="http://www.w3.org/2000/svg">
<path d="M71.5386 2.20187C75.8717 -0.252047 81.3961 -0.262735 85.6208 2.20187L150.311 38.6715C154.356 40.9466 157.064 45.4585 157.026 50.1224V123.246C157.054 128.105 154.08 132.714 149.812 134.945L85.4693 171.247C85.1952 171.399 84.9174 171.54 84.6341 171.673C84.3514 171.806 84.0642 171.929 83.7727 172.043C83.4817 172.156 83.1868 172.26 82.889 172.354C82.5907 172.447 82.29 172.532 81.9859 172.605C81.6822 172.679 81.3766 172.743 81.0686 172.796C80.7606 172.85 80.4511 172.893 80.1402 172.926C79.8298 172.959 79.5179 172.981 79.2055 172.994C78.8936 173.006 78.5812 173.008 78.2688 172.999C77.9559 172.99 77.6445 172.971 77.3331 172.942C77.0222 172.912 76.7122 172.873 76.4037 172.823C76.0952 172.773 75.7887 172.712 75.484 172.642C75.1794 172.571 74.8777 172.491 74.5785 172.4C74.2792 172.31 73.9833 172.209 73.6908 172.099C73.3984 171.989 73.1103 171.869 72.8256 171.74C72.5409 171.61 72.2611 171.471 71.9861 171.323C71.7106 171.175 71.4405 171.018 71.1757 170.852L51.8675 159.694C50.5514 158.908 49.073 158.286 48.1412 157.013C48.9647 155.908 50.427 155.767 51.6182 155.279C54.3049 154.424 56.7636 153.113 59.2336 151.726C59.8564 151.293 60.6201 151.455 61.2158 151.845L77.6805 161.368C78.8562 162.045 80.0474 161.151 81.055 160.582L144.233 124.925C145.014 124.546 145.447 123.722 145.382 122.867V50.447C145.468 49.4724 144.911 48.5838 144.028 48.1884L79.8473 12.0438C79.755 11.9801 79.6588 11.9238 79.5587 11.8747C79.4581 11.8256 79.3546 11.7843 79.2477 11.7508C79.1413 11.7178 79.0325 11.6925 78.9222 11.6755C78.8115 11.6585 78.7007 11.6498 78.5885 11.6493C78.4767 11.6493 78.366 11.6575 78.2552 11.674C78.1444 11.6906 78.0361 11.7153 77.9292 11.7484C77.8223 11.7809 77.7184 11.8217 77.6178 11.8708C77.5172 11.9194 77.421 11.9753 77.3287 12.0384L13.2398 48.2588C12.3736 48.6543 11.7775 49.5317 11.8858 50.5067V122.926C11.81 123.782 12.2652 124.589 13.0503 124.957L30.1763 134.626C33.3934 136.359 37.3417 137.334 40.8839 136.061C41.0763 135.989 41.2653 135.909 41.4518 135.822C41.6379 135.735 41.8206 135.642 41.9998 135.541C42.1791 135.44 42.3545 135.333 42.5255 135.219C42.6965 135.105 42.8627 134.984 43.0249 134.858C43.1867 134.731 43.3436 134.599 43.4952 134.46C43.6473 134.321 43.7935 134.177 43.9344 134.027C44.0753 133.878 44.2104 133.723 44.3396 133.563C44.4688 133.403 44.5917 133.238 44.7083 133.069C44.8249 132.9 44.9347 132.726 45.0382 132.549C45.1417 132.371 45.2384 132.19 45.3282 132.005C45.4181 131.82 45.5007 131.632 45.576 131.44C45.6513 131.249 45.7193 131.055 45.7801 130.859C45.8408 130.662 45.8942 130.464 45.9399 130.264C45.9856 130.063 46.0235 129.861 46.0536 129.658C46.0842 129.455 46.1065 129.251 46.1216 129.046C46.1367 128.841 46.1435 128.635 46.143 128.43L46.159 56.4435C46.0832 55.3762 47.0903 54.4934 48.1251 54.6018H56.3575C57.4409 54.5746 58.2911 55.7231 58.1449 56.7953L58.1283 129.237C58.1342 135.671 55.4908 142.67 49.5384 145.828C42.2053 149.619 33.1388 148.823 25.8917 145.178L7.47742 134.995C3.14432 132.828 0.236157 128.148 0.262878 123.295V50.171C0.265307 49.8756 0.277453 49.5803 0.299315 49.2858C0.321177 48.9914 0.352756 48.6975 0.394051 48.405C0.435347 48.1126 0.486358 47.8216 0.547087 47.5325C0.607815 47.2434 0.67826 46.9568 0.757936 46.6721C0.838098 46.3879 0.927004 46.1061 1.02563 45.8277C1.12425 45.5493 1.23162 45.2744 1.3487 45.0028C1.4653 44.7317 1.59113 44.4645 1.7257 44.2012C1.86028 43.9383 2.0036 43.6804 2.15518 43.4268C2.30675 43.1732 2.46708 42.9249 2.63517 42.682C2.80376 42.4396 2.97963 42.2025 3.16375 41.9712C3.34788 41.74 3.5393 41.5155 3.73849 41.2969C3.93719 41.0788 4.14318 40.8669 4.35646 40.6624C4.56925 40.4579 4.78885 40.2606 5.01524 40.0702C5.24115 39.8802 5.47338 39.698 5.71192 39.5231C5.94998 39.3487 6.19386 39.1821 6.44358 39.0237C6.69281 38.8653 6.94689 38.7157 7.20633 38.5743L71.5386 2.20187ZM90.192 52.8902C99.5456 52.3485 109.56 52.5326 117.976 57.1422C124.492 60.6736 128.105 68.0835 128.224 75.3311C128.039 76.3061 127.021 76.8478 126.09 76.7774C123.382 76.7715 120.663 76.8153 117.944 76.7608C116.79 76.8041 116.124 75.7425 115.978 74.7243C115.198 71.2579 113.308 67.8289 110.047 66.1552C105.043 63.6474 99.2366 63.7718 93.7774 63.8262C89.7912 64.0429 85.5071 64.3839 82.1326 66.7241C79.5329 68.5008 78.7532 72.1406 79.6792 74.9681C80.5459 77.0426 82.9449 77.7087 84.9004 78.3262C96.1769 81.2727 108.119 81.0347 119.184 84.864C123.761 86.4458 128.24 89.5226 129.811 94.3162C131.858 100.74 130.964 108.421 126.398 113.577C122.694 117.824 117.299 120.077 111.91 121.388C104.745 122.986 97.3142 123.024 90.0404 122.309C83.1995 121.529 76.0831 119.73 70.8021 115.072C66.2854 111.151 64.0865 105.041 64.3027 99.1478C64.3571 98.1509 65.3482 97.4576 66.3068 97.5387H74.4313C75.5253 97.4629 76.3265 98.4054 76.3809 99.4344C76.8847 102.685 78.125 106.205 81.006 108.101C86.5629 111.687 93.5335 111.438 99.892 111.541C105.162 111.308 111.076 111.237 115.382 107.749C117.657 105.761 118.323 102.441 117.711 99.5806C117.045 97.1651 114.461 96.0438 112.295 95.2476C101.165 91.7268 89.0872 93.005 78.0652 89.0188C73.5917 87.4369 69.264 84.4471 67.5471 79.8483C65.1481 73.3484 66.2475 65.2939 71.3006 60.3107C76.1749 55.3548 83.3243 53.4426 90.0943 52.76L90.192 52.8902Z" fill="#8CC84B"/>
</svg>
